<?xml version="1.0" encoding="UTF-8" standalone="no"?>
<!DOCTYPE svg PUBLIC "-//W3C//DTD SVG 1.1//EN"
 "http://www.w3.org/Graphics/SVG/1.1/DTD/svg11.dtd">
<!-- Generated by graphviz version 2.43.0 (0)
 -->
<!-- Title: PipelineStageRequestRuntimeCompact Pages: 1 -->
<svg width="1149pt" height="214pt"
 viewBox="0.00 0.00 1149.40 214.40" xmlns="http://www.w3.org/2000/svg" xmlns:xlink="http://www.w3.org/1999/xlink">
<g id="graph0" class="graph" transform="scale(1 1) rotate(0) translate(25.2 189.2)">
<title>PipelineStageRequestRuntimeCompact</title>
<polygon fill="white" stroke="transparent" points="-25.2,25.2 -25.2,-189.2 1124.2,-189.2 1124.2,25.2 -25.2,25.2"/>
<!-- REQ -->
<g id="node1" class="node">
<title>REQ</title>
<path fill="#f2d45c" stroke="#000000" stroke-width="1.1" d="M121,-164C121,-164 12,-164 12,-164 6,-164 0,-158 0,-152 0,-152 0,-97 0,-97 0,-91 6,-85 12,-85 12,-85 121,-85 121,-85 127,-85 133,-91 133,-97 133,-97 133,-152 133,-152 133,-158 127,-164 121,-164"/>
<text text-anchor="middle" x="66.5" y="-150" font-family="Helvetica,sans-Serif" font-size="10.00">Public API requests</text>
<text text-anchor="middle" x="66.5" y="-127" font-family="Helvetica,sans-Serif" font-size="10.00">POST /detect</text>
<text text-anchor="middle" x="66.5" y="-116" font-family="Helvetica,sans-Serif" font-size="10.00">POST /detect/panorama</text>
<text text-anchor="middle" x="66.5" y="-105" font-family="Helvetica,sans-Serif" font-size="10.00">POST /caption</text>
<text text-anchor="middle" x="66.5" y="-94" font-family="Helvetica,sans-Serif" font-size="10.00">POST /vision_chat</text>
</g>
<!-- PRE -->
<g id="node2" class="node">
<title>PRE</title>
<path fill="white" stroke="#000000" stroke-width="1.1" d="M278,-158.5C278,-158.5 178,-158.5 178,-158.5 172,-158.5 166,-152.5 166,-146.5 166,-146.5 166,-102.5 166,-102.5 166,-96.5 172,-90.5 178,-90.5 178,-90.5 278,-90.5 278,-90.5 284,-90.5 290,-96.5 290,-102.5 290,-102.5 290,-146.5 290,-146.5 290,-152.5 284,-158.5 278,-158.5"/>
<text text-anchor="middle" x="228" y="-144.5" font-family="Helvetica,sans-Serif" font-size="10.00">API preprocessing</text>
<text text-anchor="middle" x="228" y="-121.5" font-family="Helvetica,sans-Serif" font-size="10.00">read upload bytes</text>
<text text-anchor="middle" x="228" y="-110.5" font-family="Helvetica,sans-Serif" font-size="10.00">optional resize</text>
<text text-anchor="middle" x="228" y="-99.5" font-family="Helvetica,sans-Serif" font-size="10.00">parse RobotMetadata</text>
</g>
<!-- REQ&#45;&gt;PRE -->
<g id="edge1" class="edge">
<title>REQ&#45;&gt;PRE</title>
<path fill="none" stroke="#000000" d="M133.12,-124.5C133.12,-124.5 158.94,-124.5 158.94,-124.5"/>
<polygon fill="#000000" stroke="#000000" points="158.94,-126.95 165.94,-124.5 158.94,-122.05 158.94,-126.95"/>
</g>
<!-- SERVICE -->
<g id="node3" class="node">
<title>SERVICE</title>
<path fill="white" stroke="#000000" stroke-width="1.1" d="M445,-158.5C445,-158.5 343,-158.5 343,-158.5 337,-158.5 331,-152.5 331,-146.5 331,-146.5 331,-102.5 331,-102.5 331,-96.5 337,-90.5 343,-90.5 343,-90.5 445,-90.5 445,-90.5 451,-90.5 457,-96.5 457,-102.5 457,-102.5 457,-146.5 457,-146.5 457,-152.5 451,-158.5 445,-158.5"/>
<text text-anchor="middle" x="394" y="-144.5" font-family="Helvetica,sans-Serif" font-size="10.00">Request orchestration</text>
<text text-anchor="middle" x="394" y="-121.5" font-family="Helvetica,sans-Serif" font-size="10.00">DetectService</text>
<text text-anchor="middle" x="394" y="-110.5" font-family="Helvetica,sans-Serif" font-size="10.00">CaptionService</text>
<text text-anchor="middle" x="394" y="-99.5" font-family="Helvetica,sans-Serif" font-size="10.00">vision_chat endpoint</text>
</g>
<!-- PRE&#45;&gt;SERVICE -->
<g id="edge2" class="edge">
<title>PRE&#45;&gt;SERVICE</title>
<path fill="none" stroke="#000000" d="M290.28,-124.5C290.28,-124.5 323.81,-124.5 323.81,-124.5"/>
<polygon fill="#000000" stroke="#000000" points="323.81,-126.95 330.81,-124.5 323.81,-122.05 323.81,-126.95"/>
</g>
<!-- ADAPTER -->
<g id="node4" class="node">
<title>ADAPTER</title>
<path fill="#f2d45c" stroke="#000000" stroke-width="1.1" d="M653,-87.5C653,-87.5 535,-87.5 535,-87.5 529,-87.5 523,-81.5 523,-75.5 523,-75.5 523,-53.5 523,-53.5 523,-47.5 529,-41.5 535,-41.5 535,-41.5 653,-41.5 653,-41.5 659,-41.5 665,-47.5 665,-53.5 665,-53.5 665,-75.5 665,-75.5 665,-81.5 659,-87.5 653,-87.5"/>
<text text-anchor="middle" x="594" y="-73.5" font-family="Helvetica,sans-Serif" font-size="10.00">Runtime adapter</text>
<text text-anchor="middle" x="594" y="-50.5" font-family="Helvetica,sans-Serif" font-size="10.00">select execution backend</text>
</g>
<!-- SERVICE&#45;&gt;ADAPTER -->
<g id="edge3" class="edge">
<title>SERVICE&#45;&gt;ADAPTER</title>
<path fill="none" stroke="#000000" d="M394,-90.03C394,-83.03 394,-77.75 394,-77.75 394,-77.75 515.92,-77.75 515.92,-77.75"/>
<polygon fill="#000000" stroke="#000000" points="515.92,-80.2 522.92,-77.75 515.92,-75.3 515.92,-80.2"/>
</g>
<!-- INPROC -->
<g id="node5" class="node">
<title>INPROC</title>
<path fill="white" stroke="#000000" stroke-width="1.1" d="M882.5,-123.5C882.5,-123.5 781.5,-123.5 781.5,-123.5 775.5,-123.5 769.5,-117.5 769.5,-111.5 769.5,-111.5 769.5,-89.5 769.5,-89.5 769.5,-83.5 775.5,-77.5 781.5,-77.5 781.5,-77.5 882.5,-77.5 882.5,-77.5 888.5,-77.5 894.5,-83.5 894.5,-89.5 894.5,-89.5 894.5,-111.5 894.5,-111.5 894.5,-117.5 888.5,-123.5 882.5,-123.5"/>
<text text-anchor="middle" x="832" y="-109.5" font-family="Helvetica,sans-Serif" font-size="10.00">In&#45;process runtime</text>
<text text-anchor="middle" x="832" y="-86.5" font-family="Helvetica,sans-Serif" font-size="10.00">call AppState.pipeline</text>
</g>
<!-- ADAPTER&#45;&gt;INPROC -->
<g id="edge5" class="edge">
<title>ADAPTER&#45;&gt;INPROC</title>
<path fill="none" stroke="#000000" d="M665.09,-82.5C665.09,-82.5 762.36,-82.5 762.36,-82.5"/>
<polygon fill="#000000" stroke="#000000" points="762.36,-84.95 769.36,-82.5 762.36,-80.05 762.36,-84.95"/>
<text text-anchor="middle" x="714" y="-93.1" font-family="Helvetica,sans-Serif" font-size="8.00">worker disabled</text>
</g>
<!-- WORKER -->
<g id="node6" class="node">
<title>WORKER</title>
<path fill="white" stroke="#000000" stroke-width="1.1" d="M889,-57C889,-57 775,-57 775,-57 769,-57 763,-51 763,-45 763,-45 763,-12 763,-12 763,-6 769,0 775,0 775,0 889,0 889,0 895,0 901,-6 901,-12 901,-12 901,-45 901,-45 901,-51 895,-57 889,-57"/>
<text text-anchor="middle" x="832" y="-43" font-family="Helvetica,sans-Serif" font-size="10.00">Worker runtime</text>
<text text-anchor="middle" x="832" y="-20" font-family="Helvetica,sans-Serif" font-size="10.00">call WorkerManager RPC</text>
<text text-anchor="middle" x="832" y="-9" font-family="Helvetica,sans-Serif" font-size="10.00">/internal/* routes</text>
</g>
<!-- ADAPTER&#45;&gt;WORKER -->
<g id="edge6" class="edge">
<title>ADAPTER&#45;&gt;WORKER</title>
<path fill="none" stroke="#000000" d="M665.09,-49.25C665.09,-49.25 755.92,-49.25 755.92,-49.25"/>
<polygon fill="#000000" stroke="#000000" points="755.92,-51.7 762.92,-49.25 755.92,-46.8 755.92,-51.7"/>
<text text-anchor="middle" x="714" y="-50.1" font-family="Helvetica,sans-Serif" font-size="8.00">worker enabled</text>
</g>
<!-- PIPELINE -->
<g id="node7" class="node">
<title>PIPELINE</title>
<path fill="#f2d45c" stroke="#000000" stroke-width="1.1" d="M1087,-92C1087,-92 946,-92 946,-92 940,-92 934,-86 934,-80 934,-80 934,-47 934,-47 934,-41 940,-35 946,-35 946,-35 1087,-35 1087,-35 1093,-35 1099,-41 1099,-47 1099,-47 1099,-80 1099,-80 1099,-86 1093,-92 1087,-92"/>
<text text-anchor="middle" x="1016.5" y="-78" font-family="Helvetica,sans-Serif" font-size="10.00">Processing path</text>
<text text-anchor="middle" x="1016.5" y="-55" font-family="Helvetica,sans-Serif" font-size="10.00">PerceptionPipeline.process()</text>
<text text-anchor="middle" x="1016.5" y="-44" font-family="Helvetica,sans-Serif" font-size="10.00">or direct VLM vision&#45;chat path</text>
</g>
<!-- INPROC&#45;&gt;PIPELINE -->
<g id="edge7" class="edge">
<title>INPROC&#45;&gt;PIPELINE</title>
<path fill="none" stroke="#000000" d="M894.72,-84.75C894.72,-84.75 926.7,-84.75 926.7,-84.75"/>
<polygon fill="#000000" stroke="#000000" points="926.7,-87.2 933.7,-84.75 926.7,-82.3 926.7,-87.2"/>
</g>
<!-- WORKER&#45;&gt;PIPELINE -->
<g id="edge8" class="edge">
<title>WORKER&#45;&gt;PIPELINE</title>
<path fill="none" stroke="#000000" d="M901.23,-46C901.23,-46 926.82,-46 926.82,-46"/>
<polygon fill="#000000" stroke="#000000" points="926.82,-48.45 933.82,-46 926.82,-43.55 926.82,-48.45"/>
</g>
<!-- APPSTATE -->
<g id="node8" class="node">
<title>APPSTATE</title>
<path fill="#f7f7f7" stroke="#000000" stroke-width="1.1" d="M453,-70.5C453,-70.5 335,-70.5 335,-70.5 329,-70.5 323,-64.5 323,-58.5 323,-58.5 323,-46.5 323,-46.5 323,-40.5 329,-34.5 335,-34.5 335,-34.5 453,-34.5 453,-34.5 459,-34.5 465,-40.5 465,-46.5 465,-46.5 465,-58.5 465,-58.5 465,-64.5 459,-70.5 453,-70.5"/>
<text text-anchor="middle" x="394" y="-55.5" font-family="Helvetica,sans-Serif" font-size="10.00">AppState</text>
<text text-anchor="middle" x="394" y="-44.5" font-family="Helvetica,sans-Serif" font-size="10.00">config + runtime handles</text>
</g>
<!-- APPSTATE&#45;&gt;ADAPTER -->
<g id="edge4" class="edge">
<title>APPSTATE&#45;&gt;ADAPTER</title>
<path fill="none" stroke="#000000" stroke-dasharray="5,2" d="M465.08,-56C465.08,-56 515.82,-56 515.82,-56"/>
<polygon fill="#000000" stroke="#000000" points="515.82,-58.45 522.82,-56 515.82,-53.55 515.82,-58.45"/>
<text text-anchor="middle" x="494" y="-55.1" font-family="Helvetica,sans-Serif" font-size="8.00">config</text>
</g>
</g>
</svg>
