<?xml version="1.0" encoding="UTF-8" standalone="no"?>
<!DOCTYPE svg PUBLIC "-//W3C//DTD SVG 1.1//EN"
 "http://www.w3.org/Graphics/SVG/1.1/DTD/svg11.dtd">
<!-- Generated by graphviz version 2.43.0 (0)
 -->
<!-- Title: PipelineStageCaptionDetection Pages: 1 -->
<svg width="1159pt" height="520pt"
 viewBox="0.00 0.00 1158.80 519.80" xmlns="http://www.w3.org/2000/svg" xmlns:xlink="http://www.w3.org/1999/xlink">
<g id="graph0" class="graph" transform="scale(1 1) rotate(0) translate(32.4 487.4)">
<title>PipelineStageCaptionDetection</title>
<polygon fill="white" stroke="transparent" points="-32.4,32.4 -32.4,-487.4 1126.4,-487.4 1126.4,32.4 -32.4,32.4"/>
<g id="clust1" class="cluster">
<title>cluster_sequential</title>
<path fill="#f7f7f7" stroke="#000000" stroke-width="1.4" d="M20,-97C20,-97 258,-97 258,-97 264,-97 270,-103 270,-109 270,-109 270,-354 270,-354 270,-360 264,-366 258,-366 258,-366 20,-366 20,-366 14,-366 8,-360 8,-354 8,-354 8,-109 8,-109 8,-103 14,-97 20,-97"/>
<text text-anchor="middle" x="139" y="-350.8" font-family="Helvetica,sans-Serif" font-size="14.00">Sequential mode</text>
</g>
<g id="clust2" class="cluster">
<title>cluster_parallel</title>
<path fill="#ecf4ea" stroke="#000000" stroke-width="1.4" d="M684,-8C684,-8 1074,-8 1074,-8 1080,-8 1086,-14 1086,-20 1086,-20 1086,-353 1086,-353 1086,-359 1080,-365 1074,-365 1074,-365 684,-365 684,-365 678,-365 672,-359 672,-353 672,-353 672,-20 672,-20 672,-14 678,-8 684,-8"/>
<text text-anchor="middle" x="879" y="-349.8" font-family="Helvetica,sans-Serif" font-size="14.00">Parallel mode</text>
</g>
<!-- IMAGE -->
<g id="node1" class="node">
<title>IMAGE</title>
<path fill="#f2d45c" stroke="#000000" stroke-width="1.2" d="M887.5,-449C887.5,-449 742.5,-449 742.5,-449 736.5,-449 730.5,-443 730.5,-437 730.5,-437 730.5,-423 730.5,-423 730.5,-417 736.5,-411 742.5,-411 742.5,-411 887.5,-411 887.5,-411 893.5,-411 899.5,-417 899.5,-423 899.5,-423 899.5,-437 899.5,-437 899.5,-443 893.5,-449 887.5,-449"/>
<text text-anchor="middle" x="815" y="-433.2" font-family="Helvetica,sans-Serif" font-size="11.00">PIL image</text>
<text text-anchor="middle" x="815" y="-421.2" font-family="Helvetica,sans-Serif" font-size="11.00">from API or worker request</text>
</g>
<!-- S_CAPTION -->
<g id="node3" class="node">
<title>S_CAPTION</title>
<path fill="white" stroke="#000000" stroke-width="1.2" d="M250,-335C250,-335 28,-335 28,-335 22,-335 16,-329 16,-323 16,-323 16,-309 16,-309 16,-303 22,-297 28,-297 28,-297 250,-297 250,-297 256,-297 262,-303 262,-309 262,-309 262,-323 262,-323 262,-329 256,-335 250,-335"/>
<text text-anchor="middle" x="139" y="-319.2" font-family="Helvetica,sans-Serif" font-size="11.00">_run_caption()</text>
<text text-anchor="middle" x="139" y="-307.2" font-family="Helvetica,sans-Serif" font-size="11.00">CaptionInferenceService.caption_image()</text>
</g>
<!-- IMAGE&#45;&gt;S_CAPTION -->
<g id="edge8" class="edge">
<title>IMAGE&#45;&gt;S_CAPTION</title>
<path fill="none" stroke="#000000" d="M741.98,-410.93C728.2,-407.52 718,-405 718,-405 718,-405 435.42,-362.05 265.09,-336.16"/>
<polygon fill="#000000" stroke="#000000" points="265.38,-333.55 257.57,-335.02 264.59,-338.74 265.38,-333.55"/>
<text text-anchor="middle" x="613" y="-376.6" font-family="Helvetica,sans-Serif" font-size="8.00">parallel_execution=false</text>
</g>
<!-- COPY_CAP -->
<g id="node6" class="node">
<title>COPY_CAP</title>
<path fill="white" stroke="#000000" stroke-width="1.2" d="M1065.5,-334C1065.5,-334 900.5,-334 900.5,-334 894.5,-334 888.5,-328 888.5,-322 888.5,-322 888.5,-310 888.5,-310 888.5,-304 894.5,-298 900.5,-298 900.5,-298 1065.5,-298 1065.5,-298 1071.5,-298 1077.5,-304 1077.5,-310 1077.5,-310 1077.5,-322 1077.5,-322 1077.5,-328 1071.5,-334 1065.5,-334"/>
<text text-anchor="middle" x="983" y="-313.2" font-family="Helvetica,sans-Serif" font-size="11.00">copy image for caption branch</text>
</g>
<!-- IMAGE&#45;&gt;COPY_CAP -->
<g id="edge9" class="edge">
<title>IMAGE&#45;&gt;COPY_CAP</title>
<path fill="none" stroke="#000000" d="M863.65,-410.95C898.39,-398.06 939,-383 939,-383 939,-383 954.39,-359.91 966.97,-341.05"/>
<polygon fill="#000000" stroke="#000000" points="969.46,-342.04 971.44,-334.34 965.1,-339.13 969.46,-342.04"/>
<text text-anchor="middle" x="993" y="-376.6" font-family="Helvetica,sans-Serif" font-size="8.00">parallel_execution=true</text>
</g>
<!-- COPY_DET -->
<g id="node7" class="node">
<title>COPY_DET</title>
<path fill="white" stroke="#000000" stroke-width="1.2" d="M851.5,-334C851.5,-334 692.5,-334 692.5,-334 686.5,-334 680.5,-328 680.5,-322 680.5,-322 680.5,-310 680.5,-310 680.5,-304 686.5,-298 692.5,-298 692.5,-298 851.5,-298 851.5,-298 857.5,-298 863.5,-304 863.5,-310 863.5,-310 863.5,-322 863.5,-322 863.5,-328 857.5,-334 851.5,-334"/>
<text text-anchor="middle" x="772" y="-313.2" font-family="Helvetica,sans-Serif" font-size="11.00">copy image for detect branch</text>
</g>
<!-- IMAGE&#45;&gt;COPY_DET -->
<g id="edge10" class="edge">
<title>IMAGE&#45;&gt;COPY_DET</title>
<path fill="none" stroke="#000000" d="M807.9,-410.51C800.63,-391.58 789.31,-362.08 781.32,-341.28"/>
<polygon fill="#000000" stroke="#000000" points="783.69,-340.11 778.55,-334.05 778.78,-341.99 783.69,-340.11"/>
<text text-anchor="middle" x="845" y="-376.6" font-family="Helvetica,sans-Serif" font-size="8.00">parallel_execution=true</text>
</g>
<!-- CONTROLS -->
<g id="node2" class="node">
<title>CONTROLS</title>
<path fill="white" stroke="#000000" stroke-width="1.2" d="M693,-455C693,-455 597,-455 597,-455 591,-455 585,-449 585,-443 585,-443 585,-417 585,-417 585,-411 591,-405 597,-405 597,-405 693,-405 693,-405 699,-405 705,-411 705,-417 705,-417 705,-443 705,-443 705,-449 699,-455 693,-455"/>
<text text-anchor="middle" x="645" y="-439.2" font-family="Helvetica,sans-Serif" font-size="11.00">PipelineControls</text>
<text text-anchor="middle" x="645" y="-427.2" font-family="Helvetica,sans-Serif" font-size="11.00">caption, detect,</text>
<text text-anchor="middle" x="645" y="-415.2" font-family="Helvetica,sans-Serif" font-size="11.00">parallel_execution</text>
</g>
<!-- CONTROLS&#45;&gt;S_CAPTION -->
<g id="edge11" class="edge">
<title>CONTROLS&#45;&gt;S_CAPTION</title>
<path fill="none" stroke="#000000" stroke-dasharray="5,2" d="M584.9,-416.49C519.46,-402.87 424,-383 424,-383 424,-383 308.35,-356.22 224.39,-336.77"/>
<polygon fill="#000000" stroke="#000000" points="224.78,-334.17 216.88,-335.03 223.59,-339.28 224.78,-334.17"/>
</g>
<!-- CONTROLS&#45;&gt;COPY_CAP -->
<g id="edge12" class="edge">
<title>CONTROLS&#45;&gt;COPY_CAP</title>
<path fill="none" stroke="#000000" stroke-dasharray="5,2" d="M705.28,-409.18C712.85,-406.69 718,-405 718,-405 718,-405 900,-383 900,-383 900,-383 931.11,-358.27 955.23,-339.08"/>
<polygon fill="#000000" stroke="#000000" points="956.96,-341.06 961.19,-334.34 953.69,-336.95 956.96,-341.06"/>
</g>
<!-- CONTROLS&#45;&gt;COPY_DET -->
<g id="edge13" class="edge">
<title>CONTROLS&#45;&gt;COPY_DET</title>
<path fill="none" stroke="#000000" stroke-dasharray="5,2" d="M672.24,-404.97C694.36,-385.47 725.31,-358.18 746.84,-339.19"/>
<polygon fill="#000000" stroke="#000000" points="748.76,-340.99 752.65,-334.06 745.29,-337.05 748.76,-340.99"/>
</g>
<!-- S_DETECT -->
<g id="node4" class="node">
<title>S_DETECT</title>
<path fill="white" stroke="#000000" stroke-width="1.2" d="M239,-238C239,-238 101,-238 101,-238 95,-238 89,-232 89,-226 89,-226 89,-212 89,-212 89,-206 95,-200 101,-200 101,-200 239,-200 239,-200 245,-200 251,-206 251,-212 251,-212 251,-226 251,-226 251,-232 245,-238 239,-238"/>
<text text-anchor="middle" x="170" y="-222.2" font-family="Helvetica,sans-Serif" font-size="11.00">_run_detection()</text>
<text text-anchor="middle" x="170" y="-210.2" font-family="Helvetica,sans-Serif" font-size="11.00">DetectionService.detect()</text>
</g>
<!-- S_CAPTION&#45;&gt;S_DETECT -->
<g id="edge1" class="edge">
<title>S_CAPTION&#45;&gt;S_DETECT</title>
<path fill="none" stroke="#000000" d="M144.98,-296.68C149.69,-282.23 156.33,-261.88 161.59,-245.78"/>
<polygon fill="#000000" stroke="#000000" points="164.21,-246.21 164.04,-238.26 159.22,-244.58 164.21,-246.21"/>
<text text-anchor="middle" x="202" y="-268.6" font-family="Helvetica,sans-Serif" font-size="8.00">caption result retained</text>
</g>
<!-- CAP_PROVIDER -->
<g id="node12" class="node">
<title>CAP_PROVIDER</title>
<path fill="white" stroke="#000000" stroke-width="1.2" d="M652.5,-149C652.5,-149 491.5,-149 491.5,-149 485.5,-149 479.5,-143 479.5,-137 479.5,-137 479.5,-111 479.5,-111 479.5,-105 485.5,-99 491.5,-99 491.5,-99 652.5,-99 652.5,-99 658.5,-99 664.5,-105 664.5,-111 664.5,-111 664.5,-137 664.5,-137 664.5,-143 658.5,-149 652.5,-149"/>
<text text-anchor="middle" x="572" y="-133.2" font-family="Helvetica,sans-Serif" font-size="11.00">Caption backend</text>
<text text-anchor="middle" x="572" y="-121.2" font-family="Helvetica,sans-Serif" font-size="11.00">local_hf / OpenAI&#45;compatible /</text>
<text text-anchor="middle" x="572" y="-109.2" font-family="Helvetica,sans-Serif" font-size="11.00">Gemini</text>
</g>
<!-- S_CAPTION&#45;&gt;CAP_PROVIDER -->
<g id="edge14" class="edge">
<title>S_CAPTION&#45;&gt;CAP_PROVIDER</title>
<path fill="none" stroke="#000000" stroke-dasharray="5,2" d="M191.23,-296.99C222.02,-286.37 255,-275 255,-275 255,-275 422.61,-195.69 514.08,-152.41"/>
<polygon fill="#000000" stroke="#000000" points="515.41,-154.68 521.07,-149.1 513.17,-149.94 515.41,-154.68"/>
</g>
<!-- S_OUT -->
<g id="node5" class="node">
<title>S_OUT</title>
<path fill="#f2d45c" stroke="#000000" stroke-width="1.2" d="M215.5,-143C215.5,-143 124.5,-143 124.5,-143 118.5,-143 112.5,-137 112.5,-131 112.5,-131 112.5,-117 112.5,-117 112.5,-111 118.5,-105 124.5,-105 124.5,-105 215.5,-105 215.5,-105 221.5,-105 227.5,-111 227.5,-117 227.5,-117 227.5,-131 227.5,-131 227.5,-137 221.5,-143 215.5,-143"/>
<text text-anchor="middle" x="170" y="-127.2" font-family="Helvetica,sans-Serif" font-size="11.00">caption text</text>
<text text-anchor="middle" x="170" y="-115.2" font-family="Helvetica,sans-Serif" font-size="11.00">+ raw detections</text>
</g>
<!-- S_DETECT&#45;&gt;S_OUT -->
<g id="edge2" class="edge">
<title>S_DETECT&#45;&gt;S_OUT</title>
<path fill="none" stroke="#000000" d="M170,-199.63C170,-185.65 170,-166.25 170,-150.73"/>
<polygon fill="#000000" stroke="#000000" points="172.63,-150.52 170,-143.02 167.38,-150.52 172.63,-150.52"/>
</g>
<!-- DET_PROVIDER -->
<g id="node13" class="node">
<title>DET_PROVIDER</title>
<path fill="white" stroke="#000000" stroke-width="1.2" d="M442.5,-149C442.5,-149 289.5,-149 289.5,-149 283.5,-149 277.5,-143 277.5,-137 277.5,-137 277.5,-111 277.5,-111 277.5,-105 283.5,-99 289.5,-99 289.5,-99 442.5,-99 442.5,-99 448.5,-99 454.5,-105 454.5,-111 454.5,-111 454.5,-137 454.5,-137 454.5,-143 448.5,-149 442.5,-149"/>
<text text-anchor="middle" x="366" y="-133.2" font-family="Helvetica,sans-Serif" font-size="11.00">Detector backend</text>
<text text-anchor="middle" x="366" y="-121.2" font-family="Helvetica,sans-Serif" font-size="11.00">YOLO / RT&#45;DETR / RF&#45;DETR /</text>
<text text-anchor="middle" x="366" y="-109.2" font-family="Helvetica,sans-Serif" font-size="11.00">OWL&#45;ViT + threshold + NMS</text>
</g>
<!-- S_DETECT&#45;&gt;DET_PROVIDER -->
<g id="edge16" class="edge">
<title>S_DETECT&#45;&gt;DET_PROVIDER</title>
<path fill="none" stroke="#000000" stroke-dasharray="5,2" d="M208.26,-199.85C236.75,-186.33 276.15,-167.63 308.44,-152.31"/>
<polygon fill="#000000" stroke="#000000" points="309.57,-154.68 315.22,-149.09 307.32,-149.94 309.57,-154.68"/>
</g>
<!-- P_CAPTION -->
<g id="node8" class="node">
<title>P_CAPTION</title>
<path fill="white" stroke="#000000" stroke-width="1.2" d="M1055,-238C1055,-238 917,-238 917,-238 911,-238 905,-232 905,-226 905,-226 905,-212 905,-212 905,-206 911,-200 917,-200 917,-200 1055,-200 1055,-200 1061,-200 1067,-206 1067,-212 1067,-212 1067,-226 1067,-226 1067,-232 1061,-238 1055,-238"/>
<text text-anchor="middle" x="986" y="-222.2" font-family="Helvetica,sans-Serif" font-size="11.00">caption task</text>
<text text-anchor="middle" x="986" y="-210.2" font-family="Helvetica,sans-Serif" font-size="11.00">async model/provider call</text>
</g>
<!-- COPY_CAP&#45;&gt;P_CAPTION -->
<g id="edge3" class="edge">
<title>COPY_CAP&#45;&gt;P_CAPTION</title>
<path fill="none" stroke="#000000" d="M983.55,-297.58C984.01,-283.12 984.66,-262.35 985.18,-245.94"/>
<polygon fill="#000000" stroke="#000000" points="987.81,-245.86 985.42,-238.29 982.56,-245.7 987.81,-245.86"/>
</g>
<!-- P_DETECT -->
<g id="node9" class="node">
<title>P_DETECT</title>
<path fill="white" stroke="#000000" stroke-width="1.2" d="M867.5,-244C867.5,-244 692.5,-244 692.5,-244 686.5,-244 680.5,-238 680.5,-232 680.5,-232 680.5,-206 680.5,-206 680.5,-200 686.5,-194 692.5,-194 692.5,-194 867.5,-194 867.5,-194 873.5,-194 879.5,-200 879.5,-206 879.5,-206 879.5,-232 879.5,-232 879.5,-238 873.5,-244 867.5,-244"/>
<text text-anchor="middle" x="780" y="-228.2" font-family="Helvetica,sans-Serif" font-size="11.00">detection task</text>
<text text-anchor="middle" x="780" y="-216.2" font-family="Helvetica,sans-Serif" font-size="11.00">asyncio.to_thread()</text>
<text text-anchor="middle" x="780" y="-204.2" font-family="Helvetica,sans-Serif" font-size="11.00">_detector_lock protects detector</text>
</g>
<!-- COPY_DET&#45;&gt;P_DETECT -->
<g id="edge4" class="edge">
<title>COPY_DET&#45;&gt;P_DETECT</title>
<path fill="none" stroke="#000000" d="M773.47,-297.58C774.54,-284.8 776.03,-267.1 777.32,-251.83"/>
<polygon fill="#000000" stroke="#000000" points="779.96,-251.8 777.97,-244.11 774.72,-251.36 779.96,-251.8"/>
</g>
<!-- JOIN -->
<g id="node10" class="node">
<title>JOIN</title>
<path fill="white" stroke="#000000" stroke-width="1.2" d="M954,-149C954,-149 812,-149 812,-149 806,-149 800,-143 800,-137 800,-137 800,-111 800,-111 800,-105 806,-99 812,-99 812,-99 954,-99 954,-99 960,-99 966,-105 966,-111 966,-111 966,-137 966,-137 966,-143 960,-149 954,-149"/>
<text text-anchor="middle" x="883" y="-133.2" font-family="Helvetica,sans-Serif" font-size="11.00">await detection,</text>
<text text-anchor="middle" x="883" y="-121.2" font-family="Helvetica,sans-Serif" font-size="11.00">run post&#45;detection stages,</text>
<text text-anchor="middle" x="883" y="-109.2" font-family="Helvetica,sans-Serif" font-size="11.00">then await caption</text>
</g>
<!-- P_CAPTION&#45;&gt;JOIN -->
<g id="edge5" class="edge">
<title>P_CAPTION&#45;&gt;JOIN</title>
<path fill="none" stroke="#000000" d="M965.65,-199.63C951.45,-186.8 932.18,-169.41 915.82,-154.64"/>
<polygon fill="#000000" stroke="#000000" points="917.27,-152.41 909.94,-149.33 913.75,-156.3 917.27,-152.41"/>
</g>
<!-- P_CAPTION&#45;&gt;CAP_PROVIDER -->
<g id="edge15" class="edge">
<title>P_CAPTION&#45;&gt;CAP_PROVIDER</title>
<path fill="none" stroke="#000000" stroke-dasharray="5,2" d="M915.24,-199.93C901.88,-196.52 892,-194 892,-194 892,-194 711.21,-157.52 671.97,-149.45"/>
<polygon fill="#000000" stroke="#000000" points="672.46,-146.87 664.58,-147.91 671.38,-152.01 672.46,-146.87"/>
</g>
<!-- P_DETECT&#45;&gt;JOIN -->
<g id="edge6" class="edge">
<title>P_DETECT&#45;&gt;JOIN</title>
<path fill="none" stroke="#000000" d="M806.79,-193.81C820.14,-181.75 836.4,-167.08 850.46,-154.38"/>
<polygon fill="#000000" stroke="#000000" points="852.53,-156.05 856.34,-149.07 849.02,-152.15 852.53,-156.05"/>
</g>
<!-- P_DETECT&#45;&gt;DET_PROVIDER -->
<g id="edge17" class="edge">
<title>P_DETECT&#45;&gt;DET_PROVIDER</title>
<path fill="none" stroke="#000000" stroke-dasharray="5,2" d="M680.1,-195.98C588.5,-175.78 467,-149 467,-149 467,-149 465.3,-148.6 462.33,-147.89"/>
<polygon fill="#000000" stroke="#000000" points="462.52,-145.24 454.62,-146.06 461.31,-150.34 462.52,-145.24"/>
</g>
<!-- P_OUT -->
<g id="node11" class="node">
<title>P_OUT</title>
<path fill="#f2d45c" stroke="#000000" stroke-width="1.2" d="M928.5,-54C928.5,-54 837.5,-54 837.5,-54 831.5,-54 825.5,-48 825.5,-42 825.5,-42 825.5,-28 825.5,-28 825.5,-22 831.5,-16 837.5,-16 837.5,-16 928.5,-16 928.5,-16 934.5,-16 940.5,-22 940.5,-28 940.5,-28 940.5,-42 940.5,-42 940.5,-48 934.5,-54 928.5,-54"/>
<text text-anchor="middle" x="883" y="-38.2" font-family="Helvetica,sans-Serif" font-size="11.00">caption text</text>
<text text-anchor="middle" x="883" y="-26.2" font-family="Helvetica,sans-Serif" font-size="11.00">+ raw detections</text>
</g>
<!-- JOIN&#45;&gt;P_OUT -->
<g id="edge7" class="edge">
<title>JOIN&#45;&gt;P_OUT</title>
<path fill="none" stroke="#000000" d="M883,-98.77C883,-87.25 883,-73.47 883,-61.76"/>
<polygon fill="#000000" stroke="#000000" points="885.63,-61.53 883,-54.03 880.38,-61.53 885.63,-61.53"/>
</g>
</g>
</svg>
