<?xml version="1.0" encoding="UTF-8" standalone="no"?>
<!DOCTYPE svg PUBLIC "-//W3C//DTD SVG 1.1//EN"
 "http://www.w3.org/Graphics/SVG/1.1/DTD/svg11.dtd">
<!-- Generated by graphviz version 2.43.0 (0)
 -->
<!-- Title: PipelineStageSomSceneGraph Pages: 1 -->
<svg width="713pt" height="1060pt"
 viewBox="0.00 0.00 712.80 1059.80" xmlns="http://www.w3.org/2000/svg" xmlns:xlink="http://www.w3.org/1999/xlink">
<g id="graph0" class="graph" transform="scale(1 1) rotate(0) translate(32.4 1027.4)">
<title>PipelineStageSomSceneGraph</title>
<polygon fill="white" stroke="transparent" points="-32.4,32.4 -32.4,-1027.4 680.4,-1027.4 680.4,32.4 -32.4,32.4"/>
<g id="clust1" class="cluster">
<title>cluster_som</title>
<path fill="#f7f7f7" stroke="#000000" stroke-width="1.4" d="M258,-589C258,-589 591,-589 591,-589 597,-589 603,-595 603,-601 603,-601 603,-890 603,-890 603,-896 597,-902 591,-902 591,-902 258,-902 258,-902 252,-902 246,-896 246,-890 246,-890 246,-601 246,-601 246,-595 252,-589 258,-589"/>
<text text-anchor="middle" x="424.5" y="-886.8" font-family="Helvetica,sans-Serif" font-size="14.00">Set&#45;of&#45;mark rendering</text>
</g>
<g id="clust2" class="cluster">
<title>cluster_sg</title>
<path fill="#e8f0f7" stroke="#000000" stroke-width="1.4" d="M20,-8C20,-8 609,-8 609,-8 615,-8 621,-14 621,-20 621,-20 621,-554 621,-554 621,-560 615,-566 609,-566 609,-566 20,-566 20,-566 14,-566 8,-560 8,-554 8,-554 8,-20 8,-20 8,-14 14,-8 20,-8"/>
<text text-anchor="middle" x="314.5" y="-550.8" font-family="Helvetica,sans-Serif" font-size="14.00">SceneGraphService.generate()</text>
</g>
<!-- INPUTS -->
<g id="node1" class="node">
<title>INPUTS</title>
<path fill="#f2d45c" stroke="#000000" stroke-width="1.2" d="M499,-995C499,-995 349,-995 349,-995 343,-995 337,-989 337,-983 337,-983 337,-945 337,-945 337,-939 343,-933 349,-933 349,-933 499,-933 499,-933 505,-933 511,-939 511,-945 511,-945 511,-983 511,-983 511,-989 505,-995 499,-995"/>
<text text-anchor="middle" x="424" y="-979.2" font-family="Helvetica,sans-Serif" font-size="11.00">tracked detections</text>
<text text-anchor="middle" x="424" y="-967.2" font-family="Helvetica,sans-Serif" font-size="11.00">raw image</text>
<text text-anchor="middle" x="424" y="-955.2" font-family="Helvetica,sans-Serif" font-size="11.00">caption text</text>
<text text-anchor="middle" x="424" y="-943.2" font-family="Helvetica,sans-Serif" font-size="11.00">current SceneMemory state</text>
</g>
<!-- SOM_CTRL -->
<g id="node2" class="node">
<title>SOM_CTRL</title>
<path fill="white" stroke="#000000" stroke-width="1.2" d="M412.46,-867.7C412.46,-867.7 302.54,-836.3 302.54,-836.3 296.77,-834.65 296.77,-831.35 302.54,-829.7 302.54,-829.7 412.46,-798.3 412.46,-798.3 418.23,-796.65 429.77,-796.65 435.54,-798.3 435.54,-798.3 545.46,-829.7 545.46,-829.7 551.23,-831.35 551.23,-834.65 545.46,-836.3 545.46,-836.3 435.54,-867.7 435.54,-867.7 429.77,-869.35 418.23,-869.35 412.46,-867.7"/>
<text text-anchor="middle" x="424" y="-836.2" font-family="Helvetica,sans-Serif" font-size="11.00">paint_som enabled</text>
<text text-anchor="middle" x="424" y="-824.2" font-family="Helvetica,sans-Serif" font-size="11.00">and detect enabled?</text>
</g>
<!-- INPUTS&#45;&gt;SOM_CTRL -->
<g id="edge1" class="edge">
<title>INPUTS&#45;&gt;SOM_CTRL</title>
<path fill="none" stroke="#000000" d="M424,-932.76C424,-916.87 424,-897.08 424,-879.39"/>
<polygon fill="#000000" stroke="#000000" points="426.63,-878.94 424,-871.44 421.38,-878.94 426.63,-878.94"/>
</g>
<!-- PAINTER -->
<g id="node3" class="node">
<title>PAINTER</title>
<path fill="white" stroke="#000000" stroke-width="1.2" d="M398,-742C398,-742 266,-742 266,-742 260,-742 254,-736 254,-730 254,-730 254,-704 254,-704 254,-698 260,-692 266,-692 266,-692 398,-692 398,-692 404,-692 410,-698 410,-704 410,-704 410,-730 410,-730 410,-736 404,-742 398,-742"/>
<text text-anchor="middle" x="332" y="-726.2" font-family="Helvetica,sans-Serif" font-size="11.00">SoMPainter.paint()</text>
<text text-anchor="middle" x="332" y="-714.2" font-family="Helvetica,sans-Serif" font-size="11.00">boxes, masks, polygons,</text>
<text text-anchor="middle" x="332" y="-702.2" font-family="Helvetica,sans-Serif" font-size="11.00">labels, color lookup</text>
</g>
<!-- SOM_CTRL&#45;&gt;PAINTER -->
<g id="edge2" class="edge">
<title>SOM_CTRL&#45;&gt;PAINTER</title>
<path fill="none" stroke="#000000" d="M399.59,-801.75C386.22,-785.18 369.7,-764.72 356.34,-748.16"/>
<polygon fill="#000000" stroke="#000000" points="358.33,-746.44 351.58,-742.26 354.24,-749.74 358.33,-746.44"/>
<text text-anchor="middle" x="383.5" y="-766.6" font-family="Helvetica,sans-Serif" font-size="8.00">true</text>
</g>
<!-- FALLBACK -->
<g id="node4" class="node">
<title>FALLBACK</title>
<path fill="white" stroke="#000000" stroke-width="1.2" d="M583,-736C583,-736 447,-736 447,-736 441,-736 435,-730 435,-724 435,-724 435,-710 435,-710 435,-704 441,-698 447,-698 447,-698 583,-698 583,-698 589,-698 595,-704 595,-710 595,-710 595,-724 595,-724 595,-730 589,-736 583,-736"/>
<text text-anchor="middle" x="515" y="-720.2" font-family="Helvetica,sans-Serif" font-size="11.00">raw image fallback</text>
<text text-anchor="middle" x="515" y="-708.2" font-family="Helvetica,sans-Serif" font-size="11.00">when no SoM is rendered</text>
</g>
<!-- SOM_CTRL&#45;&gt;FALLBACK -->
<g id="edge3" class="edge">
<title>SOM_CTRL&#45;&gt;FALLBACK</title>
<path fill="none" stroke="#000000" d="M448.15,-801.75C462.97,-783.18 481.69,-759.72 495.55,-742.36"/>
<polygon fill="#000000" stroke="#000000" points="497.8,-743.76 500.43,-736.26 493.69,-740.48 497.8,-743.76"/>
<text text-anchor="middle" x="487.5" y="-766.6" font-family="Helvetica,sans-Serif" font-size="8.00">false</text>
</g>
<!-- SGM_IMAGE -->
<g id="node5" class="node">
<title>SGM_IMAGE</title>
<path fill="#f2d45c" stroke="#000000" stroke-width="1.2" d="M506.5,-647C506.5,-647 341.5,-647 341.5,-647 335.5,-647 329.5,-641 329.5,-635 329.5,-635 329.5,-609 329.5,-609 329.5,-603 335.5,-597 341.5,-597 341.5,-597 506.5,-597 506.5,-597 512.5,-597 518.5,-603 518.5,-609 518.5,-609 518.5,-635 518.5,-635 518.5,-641 512.5,-647 506.5,-647"/>
<text text-anchor="middle" x="424" y="-631.2" font-family="Helvetica,sans-Serif" font-size="11.00">image passed to VLM backend</text>
<text text-anchor="middle" x="424" y="-619.2" font-family="Helvetica,sans-Serif" font-size="11.00">SoM image if available,</text>
<text text-anchor="middle" x="424" y="-607.2" font-family="Helvetica,sans-Serif" font-size="11.00">otherwise raw image</text>
</g>
<!-- PAINTER&#45;&gt;SGM_IMAGE -->
<g id="edge4" class="edge">
<title>PAINTER&#45;&gt;SGM_IMAGE</title>
<path fill="none" stroke="#000000" d="M356.17,-691.57C367.9,-679.71 382.09,-665.37 394.45,-652.87"/>
<polygon fill="#000000" stroke="#000000" points="396.58,-654.45 399.99,-647.27 392.85,-650.76 396.58,-654.45"/>
</g>
<!-- FALLBACK&#45;&gt;SGM_IMAGE -->
<g id="edge5" class="edge">
<title>FALLBACK&#45;&gt;SGM_IMAGE</title>
<path fill="none" stroke="#000000" d="M497.02,-697.63C484.58,-684.92 467.75,-667.71 453.38,-653.03"/>
<polygon fill="#000000" stroke="#000000" points="454.93,-650.85 447.81,-647.33 451.17,-654.52 454.93,-650.85"/>
</g>
<!-- SG_CTRL -->
<g id="node6" class="node">
<title>SG_CTRL</title>
<path fill="white" stroke="#000000" stroke-width="1.2" d="M412.19,-532.85C412.19,-532.85 292.81,-511.15 292.81,-511.15 286.9,-510.07 286.9,-507.93 292.81,-506.85 292.81,-506.85 412.19,-485.15 412.19,-485.15 418.1,-484.07 429.9,-484.07 435.81,-485.15 435.81,-485.15 555.19,-506.85 555.19,-506.85 561.1,-507.93 561.1,-510.07 555.19,-511.15 555.19,-511.15 435.81,-532.85 435.81,-532.85 429.9,-533.93 418.1,-533.93 412.19,-532.85"/>
<text text-anchor="middle" x="424" y="-506.2" font-family="Helvetica,sans-Serif" font-size="11.00">scene_graph enabled?</text>
</g>
<!-- SGM_IMAGE&#45;&gt;SG_CTRL -->
<g id="edge6" class="edge">
<title>SGM_IMAGE&#45;&gt;SG_CTRL</title>
<path fill="none" stroke="#000000" d="M424,-596.91C424,-581.1 424,-560.21 424,-542.88"/>
<polygon fill="#000000" stroke="#000000" points="426.63,-542.69 424,-535.19 421.38,-542.69 426.63,-542.69"/>
</g>
<!-- FANOUT -->
<g id="node7" class="node">
<title>FANOUT</title>
<path fill="white" stroke="#000000" stroke-width="1.2" d="M456,-430C456,-430 288,-430 288,-430 282,-430 276,-424 276,-418 276,-418 276,-392 276,-392 276,-386 282,-380 288,-380 288,-380 456,-380 456,-380 462,-380 468,-386 468,-392 468,-392 468,-418 468,-418 468,-424 462,-430 456,-430"/>
<text text-anchor="middle" x="372" y="-414.2" font-family="Helvetica,sans-Serif" font-size="11.00">backend execution</text>
<text text-anchor="middle" x="372" y="-402.2" font-family="Helvetica,sans-Serif" font-size="11.00">sequential or parallel by</text>
<text text-anchor="middle" x="372" y="-390.2" font-family="Helvetica,sans-Serif" font-size="11.00">scene_graph.parallel_execution</text>
</g>
<!-- SG_CTRL&#45;&gt;FANOUT -->
<g id="edge7" class="edge">
<title>SG_CTRL&#45;&gt;FANOUT</title>
<path fill="none" stroke="#000000" d="M412.33,-485.11C405.11,-470.95 395.75,-452.58 387.86,-437.11"/>
<polygon fill="#000000" stroke="#000000" points="390.1,-435.73 384.36,-430.24 385.42,-438.11 390.1,-435.73"/>
<text text-anchor="middle" x="407.5" y="-454.6" font-family="Helvetica,sans-Serif" font-size="8.00">true</text>
</g>
<!-- GRAPH_OUT -->
<g id="node13" class="node">
<title>GRAPH_OUT</title>
<path fill="#f2d45c" stroke="#000000" stroke-width="1.2" d="M520,-54C520,-54 376,-54 376,-54 370,-54 364,-48 364,-42 364,-42 364,-28 364,-28 364,-22 370,-16 376,-16 376,-16 520,-16 520,-16 526,-16 532,-22 532,-28 532,-28 532,-42 532,-42 532,-48 526,-54 520,-54"/>
<text text-anchor="middle" x="448" y="-38.2" font-family="Helvetica,sans-Serif" font-size="11.00">current&#45;frame scene graph</text>
<text text-anchor="middle" x="448" y="-26.2" font-family="Helvetica,sans-Serif" font-size="11.00">relationship triples</text>
</g>
<!-- SG_CTRL&#45;&gt;GRAPH_OUT -->
<g id="edge8" class="edge">
<title>SG_CTRL&#45;&gt;GRAPH_OUT</title>
<path fill="none" stroke="#000000" stroke-dasharray="5,2" d="M445.46,-486.79C492.19,-440.59 599,-335 599,-335 599,-335 599,-285 599,-285 599,-285 501.23,-123.78 463.03,-60.79"/>
<polygon fill="#000000" stroke="#000000" points="465.24,-59.36 459.1,-54.31 460.75,-62.08 465.24,-59.36"/>
<text text-anchor="middle" x="616.5" y="-256.6" font-family="Helvetica,sans-Serif" font-size="8.00">false: no graph</text>
</g>
<!-- RULES -->
<g id="node8" class="node">
<title>RULES</title>
<path fill="white" stroke="#000000" stroke-width="1.2" d="M170,-329C170,-329 28,-329 28,-329 22,-329 16,-323 16,-317 16,-317 16,-303 16,-303 16,-297 22,-291 28,-291 28,-291 170,-291 170,-291 176,-291 182,-297 182,-303 182,-303 182,-317 182,-317 182,-323 176,-329 170,-329"/>
<text text-anchor="middle" x="99" y="-313.2" font-family="Helvetica,sans-Serif" font-size="11.00">RuleSceneGraphGenerator</text>
<text text-anchor="middle" x="99" y="-301.2" font-family="Helvetica,sans-Serif" font-size="11.00">geometric predicates</text>
</g>
<!-- FANOUT&#45;&gt;RULES -->
<g id="edge9" class="edge">
<title>FANOUT&#45;&gt;RULES</title>
<path fill="none" stroke="#000000" d="M301.34,-379.93C257.28,-364.92 201.19,-345.81 159.25,-331.52"/>
<polygon fill="#000000" stroke="#000000" points="160.06,-329.03 152.11,-329.09 158.37,-334 160.06,-329.03"/>
</g>
<!-- RELTR -->
<g id="node9" class="node">
<title>RELTR</title>
<path fill="white" stroke="#000000" stroke-width="1.2" d="M369,-329C369,-329 219,-329 219,-329 213,-329 207,-323 207,-317 207,-317 207,-303 207,-303 207,-297 213,-291 219,-291 219,-291 369,-291 369,-291 375,-291 381,-297 381,-303 381,-303 381,-317 381,-317 381,-323 375,-329 369,-329"/>
<text text-anchor="middle" x="294" y="-313.2" font-family="Helvetica,sans-Serif" font-size="11.00">RelTRSceneGraphGenerator</text>
<text text-anchor="middle" x="294" y="-301.2" font-family="Helvetica,sans-Serif" font-size="11.00">learned relation proposals</text>
</g>
<!-- FANOUT&#45;&gt;RELTR -->
<g id="edge10" class="edge">
<title>FANOUT&#45;&gt;RELTR</title>
<path fill="none" stroke="#000000" d="M351.51,-379.57C340,-365.84 325.69,-348.79 314.23,-335.12"/>
<polygon fill="#000000" stroke="#000000" points="316.01,-333.16 309.18,-329.1 311.99,-336.53 316.01,-333.16"/>
</g>
<!-- VLM -->
<g id="node10" class="node">
<title>VLM</title>
<path fill="white" stroke="#000000" stroke-width="1.2" d="M574,-335C574,-335 418,-335 418,-335 412,-335 406,-329 406,-323 406,-323 406,-297 406,-297 406,-291 412,-285 418,-285 418,-285 574,-285 574,-285 580,-285 586,-291 586,-297 586,-297 586,-323 586,-323 586,-329 580,-335 574,-335"/>
<text text-anchor="middle" x="496" y="-319.2" font-family="Helvetica,sans-Serif" font-size="11.00">VLMSceneGraphGenerator</text>
<text text-anchor="middle" x="496" y="-307.2" font-family="Helvetica,sans-Serif" font-size="11.00">SoM/raw image + detections</text>
<text text-anchor="middle" x="496" y="-295.2" font-family="Helvetica,sans-Serif" font-size="11.00">+ caption context</text>
</g>
<!-- FANOUT&#45;&gt;VLM -->
<g id="edge11" class="edge">
<title>FANOUT&#45;&gt;VLM</title>
<path fill="none" stroke="#000000" d="M404.26,-379.81C420.62,-367.54 440.6,-352.55 457.73,-339.7"/>
<polygon fill="#000000" stroke="#000000" points="459.48,-341.67 463.91,-335.07 456.33,-337.47 459.48,-341.67"/>
</g>
<!-- MERGE -->
<g id="node11" class="node">
<title>MERGE</title>
<path fill="white" stroke="#000000" stroke-width="1.2" d="M394.5,-232C394.5,-232 247.5,-232 247.5,-232 241.5,-232 235.5,-226 235.5,-220 235.5,-220 235.5,-206 235.5,-206 235.5,-200 241.5,-194 247.5,-194 247.5,-194 394.5,-194 394.5,-194 400.5,-194 406.5,-200 406.5,-206 406.5,-206 406.5,-220 406.5,-220 406.5,-226 400.5,-232 394.5,-232"/>
<text text-anchor="middle" x="321" y="-216.2" font-family="Helvetica,sans-Serif" font-size="11.00">SceneGraph union + dedup</text>
<text text-anchor="middle" x="321" y="-204.2" font-family="Helvetica,sans-Serif" font-size="11.00">merge backend outputs</text>
</g>
<!-- RULES&#45;&gt;MERGE -->
<g id="edge12" class="edge">
<title>RULES&#45;&gt;MERGE</title>
<path fill="none" stroke="#000000" d="M141.28,-290.91C178.47,-274.99 232.62,-251.82 271.75,-235.07"/>
<polygon fill="#000000" stroke="#000000" points="273.02,-237.39 278.88,-232.03 270.95,-232.56 273.02,-237.39"/>
</g>
<!-- RELTR&#45;&gt;MERGE -->
<g id="edge13" class="edge">
<title>RELTR&#45;&gt;MERGE</title>
<path fill="none" stroke="#000000" d="M299.21,-290.68C303.31,-276.23 309.1,-255.88 313.67,-239.78"/>
<polygon fill="#000000" stroke="#000000" points="316.28,-240.19 315.81,-232.26 311.23,-238.76 316.28,-240.19"/>
</g>
<!-- VLM&#45;&gt;MERGE -->
<g id="edge14" class="edge">
<title>VLM&#45;&gt;MERGE</title>
<path fill="none" stroke="#000000" d="M451.39,-284.78C423.47,-269.63 387.83,-250.28 360.86,-235.64"/>
<polygon fill="#000000" stroke="#000000" points="362.05,-233.29 354.2,-232.02 359.54,-237.91 362.05,-233.29"/>
</g>
<!-- ROBOT_ATTRS -->
<g id="node12" class="node">
<title>ROBOT_ATTRS</title>
<path fill="white" stroke="#000000" stroke-width="1.2" d="M440,-149C440,-149 292,-149 292,-149 286,-149 280,-143 280,-137 280,-137 280,-111 280,-111 280,-105 286,-99 292,-99 292,-99 440,-99 440,-99 446,-99 452,-105 452,-111 452,-111 452,-137 452,-137 452,-143 446,-149 440,-149"/>
<text text-anchor="middle" x="366" y="-133.2" font-family="Helvetica,sans-Serif" font-size="11.00">enhance with robot&#45;derived</text>
<text text-anchor="middle" x="366" y="-121.2" font-family="Helvetica,sans-Serif" font-size="11.00">current&#45;object attributes</text>
<text text-anchor="middle" x="366" y="-109.2" font-family="Helvetica,sans-Serif" font-size="11.00">from SceneMemory</text>
</g>
<!-- MERGE&#45;&gt;ROBOT_ATTRS -->
<g id="edge15" class="edge">
<title>MERGE&#45;&gt;ROBOT_ATTRS</title>
<path fill="none" stroke="#000000" d="M330.32,-193.97C335.97,-183.05 343.33,-168.83 349.89,-156.14"/>
<polygon fill="#000000" stroke="#000000" points="352.33,-157.14 353.44,-149.27 347.67,-154.73 352.33,-157.14"/>
</g>
<!-- ROBOT_ATTRS&#45;&gt;GRAPH_OUT -->
<g id="edge16" class="edge">
<title>ROBOT_ATTRS&#45;&gt;GRAPH_OUT</title>
<path fill="none" stroke="#000000" d="M388.84,-98.77C400.33,-86.58 414.19,-71.87 425.61,-59.75"/>
<polygon fill="#000000" stroke="#000000" points="427.77,-61.29 431,-54.03 423.95,-57.69 427.77,-61.29"/>
</g>
</g>
</svg>
